<svg version="1.1" id="Layer_1" xmlns="http://www.w3.org/2000/svg" xmlns:xlink="http://www.w3.org/1999/xlink" x="0px" y="0px"
	 width="100%" viewBox="0 0 512 512" enable-background="new 0 0 512 512" xml:space="preserve">
<path fill="#000000" opacity="1.000000" stroke="none" 
	d="
M300.000000,513.000000 
	C200.024277,513.000000 100.548546,513.000000 1.036411,513.000000 
	C1.036411,342.399261 1.036411,171.798492 1.036411,1.098866 
	C171.559067,1.098866 342.118225,1.098866 512.838684,1.098866 
	C512.838684,171.666550 512.838684,342.333252 512.838684,513.000000 
	C442.131805,513.000000 371.315887,513.000000 300.000000,513.000000 
M253.241043,67.175339 
	C251.617355,67.456985 249.958282,67.609146 248.375793,68.041550 
	C238.973160,70.610649 232.133499,79.774918 232.307877,89.471634 
	C232.491669,99.692818 239.511917,108.285072 250.150635,110.830627 
	C251.471756,110.949348 252.791733,111.155769 254.114182,111.173126 
	C266.425262,111.334785 276.539032,101.549248 276.647278,89.405525 
	C276.757477,77.041672 266.607147,67.129616 253.241043,67.175339 
M440.859924,337.939301 
	C440.859924,347.485931 440.859924,357.032593 440.859924,366.755463 
	C449.376251,366.755463 457.164032,367.008270 464.927368,366.681061 
	C472.032745,366.381622 478.187439,363.388885 482.612762,357.758057 
	C491.489197,346.463654 494.224487,333.503448 492.432892,318.624146 
	C490.042358,311.439209 488.323547,303.931580 485.071320,297.160522 
	C481.853760,290.461578 475.691864,285.908783 468.167236,285.279510 
	C459.286591,284.536865 450.296295,285.105255 441.038788,285.105255 
	C441.038788,302.490479 441.038788,319.755890 440.859924,337.939301 
M16.151237,320.943054 
	C15.479143,331.599487 16.925173,341.877747 21.980328,351.410065 
	C26.251184,359.463409 32.476631,365.531250 41.876431,366.299957 
	C50.414421,366.998230 59.054539,366.447693 67.934296,366.447693 
	C67.934296,356.566223 67.934296,346.792358 68.096611,336.090973 
	C68.096611,319.143585 68.096611,302.196167 68.096611,284.815979 
	C60.034245,284.815979 52.419987,284.783417 44.806129,284.824738 
	C36.541378,284.869598 30.081135,288.545532 25.180847,295.014191 
	C19.587587,302.397614 17.024809,310.897308 16.151237,320.943054 
M433.869324,192.800049 
	C438.784241,192.045029 443.825012,191.754059 448.594025,190.460938 
	C483.973572,180.867737 504.851227,145.127350 496.447571,108.858849 
	C489.470917,78.749001 462.493683,56.305840 433.195801,56.649300 
	C420.052032,56.728081 406.905884,56.691494 393.766113,56.963802 
	C390.324249,57.035130 386.816956,57.763107 383.484741,58.703476 
	C358.331940,65.801781 341.659607,81.993935 335.535034,107.269081 
	C329.307861,132.967636 335.287933,156.166779 354.860992,174.844498 
	C358.447754,178.267212 360.182220,181.727707 359.917389,186.601639 
	C359.649750,191.526840 359.858398,196.477921 359.858398,201.957336 
	C364.448242,200.130432 368.559204,198.803970 372.384796,196.903214 
	C379.125702,193.553986 386.130585,192.623993 393.601379,192.778824 
	C406.737396,193.051086 419.886017,192.715286 433.869324,192.800049 
M331.689636,457.420319 
	C337.685364,457.481293 343.680939,457.560181 349.676819,457.600372 
	C391.228333,457.878937 425.146057,425.817017 425.707581,384.865112 
	C426.207764,348.385498 426.101929,311.890198 425.695312,275.408142 
	C425.433441,251.911972 417.710114,230.704544 403.281494,212.060516 
	C402.097473,210.530533 400.580658,208.267624 399.081207,208.153809 
	C394.145691,207.779144 388.813263,207.171692 384.244293,208.603485 
	C375.573730,211.320541 367.326569,215.388824 358.120697,218.962585 
	C349.545227,221.304794 345.081543,217.922684 344.968506,209.023376 
	C344.922119,205.372284 344.822601,201.721848 344.922363,197.156097 
	C344.932007,195.832382 344.825317,194.495850 344.969727,193.186996 
	C346.149780,182.490753 335.883789,178.732666 331.677246,171.305984 
	C331.475189,170.949219 330.438202,170.987823 329.787323,170.974472 
	C320.873474,170.791443 311.959106,170.631744 302.118103,170.292526 
	C264.961700,170.276855 227.804596,170.137390 190.649521,170.351868 
	C183.371674,170.393875 175.963394,171.162430 168.850296,172.690125 
	C117.906136,183.631439 83.325096,226.502197 83.145912,278.728394 
	C83.033295,311.552643 83.088097,344.377594 83.158005,377.202087 
	C83.169327,382.519409 83.391876,387.863556 83.957924,393.148071 
	C87.522636,426.427338 117.261185,455.591766 150.636398,456.911346 
	C178.081314,457.996490 205.598877,457.317932 233.083893,457.257568 
	C239.147049,457.244232 244.605988,457.593842 245.735977,464.833862 
	C252.417023,464.833862 258.552216,464.833862 264.786652,464.833862 
	C265.940979,458.783325 269.998230,457.254730 275.470795,457.268921 
	C293.957062,457.316833 312.443817,457.176270 331.689636,457.420319 
M246.001434,134.611084 
	C246.001434,141.081726 246.001434,147.552353 246.001434,154.022995 
	C246.250443,154.016296 246.499466,154.009613 246.748474,154.002914 
	C246.748474,144.933685 246.748474,135.864456 246.748474,126.795219 
	C246.499466,126.793999 246.250443,126.792786 246.001434,126.791565 
	C246.001434,129.079605 246.001434,131.367661 246.001434,134.611084 
M477.008636,250.855972 
	C477.008636,249.552490 477.008636,248.249008 477.008636,246.945526 
	C476.753723,246.953827 476.498810,246.962112 476.243896,246.970413 
	C476.243896,254.976059 476.243896,262.981720 476.243896,270.987366 
	C476.497101,270.989685 476.750275,270.992004 477.003479,270.994354 
	C477.003479,264.587708 477.003479,258.181061 477.008636,250.855972 
z"/>
<path fill="#FB4754" opacity="1.000000" stroke="none" 
	d="
M344.747253,198.071121 
	C344.822601,201.721848 344.922119,205.372284 344.968506,209.023376 
	C345.081543,217.922684 349.545227,221.304794 358.815277,219.101196 
	C362.969177,227.013138 366.428497,234.786453 369.525055,242.423798 
	C362.568085,240.751724 356.000763,238.039490 349.374939,237.888199 
	C324.076813,237.310577 298.759857,237.554535 273.449951,237.499588 
	C268.375397,237.488571 265.281311,239.847458 264.144653,245.027191 
	C257.567047,245.027969 251.429382,245.018158 245.199707,244.640259 
	C244.164215,238.534103 240.078079,237.463623 235.160599,237.468704 
	C211.171570,237.493500 187.182281,237.432037 163.193619,237.528671 
	C159.217697,237.544693 155.161301,237.798050 151.283310,238.613342 
	C127.049286,243.708054 110.999794,263.396759 110.777733,288.631744 
	C110.554924,313.951569 110.699867,339.274963 110.766853,364.596558 
	C110.775620,367.910553 110.956154,371.287872 111.604347,374.526306 
	C116.613861,399.554443 137.037613,415.791168 163.672226,415.819000 
	C222.478699,415.880402 281.285431,415.773651 340.091675,415.899200 
	C350.362671,415.921143 360.333374,414.953308 370.110901,411.087494 
	C370.392761,411.924133 370.600067,412.615448 370.400909,413.157440 
	C365.984070,425.176788 358.718506,435.353027 349.214874,443.736023 
	C343.575897,448.710083 337.054840,452.684082 330.930359,457.107727 
	C312.443817,457.176270 293.957062,457.316833 275.470795,457.268921 
	C269.998230,457.254730 265.940979,458.783325 264.786652,464.833862 
	C258.552216,464.833862 252.417023,464.833862 245.735977,464.833862 
	C244.605988,457.593842 239.147049,457.244232 233.083893,457.257568 
	C205.598877,457.317932 178.081314,457.996490 150.636398,456.911346 
	C117.261185,455.591766 87.522636,426.427338 83.957924,393.148071 
	C83.391876,387.863556 83.169327,382.519409 83.158005,377.202087 
	C83.088097,344.377594 83.033295,311.552643 83.145912,278.728394 
	C83.325096,226.502197 117.906136,183.631439 168.850296,172.690125 
	C175.963394,171.162430 183.371674,170.393875 190.649521,170.351868 
	C227.804596,170.137390 264.961700,170.276855 302.838806,170.581940 
	C313.424500,176.601990 323.439087,182.095078 333.085815,188.172119 
	C337.356720,190.862625 340.882996,194.735168 344.747253,198.071121 
z"/>
<path fill="#FBD69E" opacity="1.000000" stroke="none" 
	d="
M433.029358,192.634140 
	C419.886017,192.715286 406.737396,193.051086 393.601379,192.778824 
	C386.130585,192.623993 379.125702,193.553986 372.384796,196.903214 
	C368.559204,198.803970 364.448242,200.130432 359.858398,201.957336 
	C359.858398,196.477921 359.649750,191.526840 359.917389,186.601639 
	C360.182220,181.727707 358.447754,178.267212 354.860992,174.844498 
	C335.287933,156.166779 329.307861,132.967636 335.535034,107.269081 
	C341.659607,81.993935 358.331940,65.801781 383.484741,58.703476 
	C386.816956,57.763107 390.324249,57.035130 393.766113,56.963802 
	C406.905884,56.691494 420.052032,56.728081 433.789062,57.054947 
	C450.815918,66.280739 462.635834,79.313461 469.261902,96.729240 
	C474.860413,111.444084 475.828888,126.616760 472.046875,141.606796 
	C471.943481,136.265915 469.502533,133.077240 464.532867,133.053528 
	C435.719727,132.916046 406.905426,132.939346 378.091949,133.028030 
	C373.483917,133.042206 370.414581,136.392715 370.493256,140.583649 
	C370.568176,144.575409 373.532410,147.552704 377.854370,147.937027 
	C378.681091,148.010529 379.518890,147.964630 380.351593,147.964661 
	C407.666565,147.965668 434.982269,148.056686 462.295349,147.830490 
	C465.159424,147.806778 468.007965,145.909225 470.903656,145.289352 
	C470.630096,147.302124 470.503540,148.971237 469.974609,150.501236 
	C463.387573,169.555313 450.448975,183.065308 433.029358,192.634140 
M400.500000,112.926613 
	C413.810974,112.926376 427.122040,112.949036 440.432922,112.915787 
	C446.657318,112.900238 450.073364,110.129700 450.025604,105.283722 
	C449.979218,100.575340 446.725952,97.936073 440.757660,97.928658 
	C420.292053,97.903221 399.826385,97.897301 379.360809,97.933624 
	C373.847931,97.943405 370.583252,100.701965 370.487885,105.196487 
	C370.389252,109.843941 373.838104,112.851997 379.533722,112.910072 
	C386.188538,112.977928 392.844543,112.926361 400.500000,112.926613 
z"/>
<path fill="#F62C3C" opacity="1.000000" stroke="none" 
	d="
M369.887817,242.559769 
	C366.428497,234.786453 362.969177,227.013138 359.206726,219.067841 
	C367.326569,215.388824 375.573730,211.320541 384.244293,208.603485 
	C388.813263,207.171692 394.145691,207.779144 399.081207,208.153809 
	C400.580658,208.267624 402.097473,210.530533 403.281494,212.060516 
	C417.710114,230.704544 425.433441,251.911972 425.695312,275.408142 
	C426.101929,311.890198 426.207764,348.385498 425.707581,384.865112 
	C425.146057,425.817017 391.228333,457.878937 349.676819,457.600372 
	C343.680939,457.560181 337.685364,457.481293 331.309998,457.264038 
	C337.054840,452.684082 343.575897,448.710083 349.214874,443.736023 
	C358.718506,435.353027 365.984070,425.176788 370.400909,413.157440 
	C370.600067,412.615448 370.392761,411.924133 370.320251,410.817780 
	C388.568085,400.441437 398.058746,385.125244 398.179535,364.292725 
	C398.321289,339.842072 398.057648,315.388672 398.264160,290.938965 
	C398.449127,269.042084 388.955811,253.049957 369.887817,242.559769 
z"/>
<path fill="#F7C373" opacity="1.000000" stroke="none" 
	d="
M433.449341,192.717102 
	C450.448975,183.065308 463.387573,169.555313 469.974609,150.501236 
	C470.503540,148.971237 470.630096,147.302124 470.921265,145.319031 
	C470.898895,144.940399 470.830231,144.939514 471.004028,144.890213 
	C471.278687,144.778748 471.472687,144.698944 471.464813,144.657379 
	C471.423126,144.437363 471.330688,144.226929 471.271667,143.735672 
	C471.554626,142.971832 471.821747,142.485504 472.088867,141.999176 
	C475.828888,126.616760 474.860413,111.444084 469.261902,96.729240 
	C462.635834,79.313461 450.815918,66.280739 434.184753,57.178402 
	C462.493683,56.305840 489.470917,78.749001 496.447571,108.858849 
	C504.851227,145.127350 483.973572,180.867737 448.594025,190.460938 
	C443.825012,191.754059 438.784241,192.045029 433.449341,192.717102 
z"/>
<path fill="#31A7FA" opacity="1.000000" stroke="none" 
	d="
M16.412514,320.053070 
	C17.024809,310.897308 19.587587,302.397614 25.180847,295.014191 
	C30.081135,288.545532 36.541378,284.869598 44.806129,284.824738 
	C52.419987,284.783417 60.034245,284.815979 68.096611,284.815979 
	C68.096611,302.196167 68.096611,319.143585 67.551208,336.555908 
	C60.383526,337.021423 53.749004,336.763367 47.141514,337.076233 
	C33.307407,337.731262 23.389479,331.621796 16.412514,320.053070 
z"/>
<path fill="#31A7FA" opacity="1.000000" stroke="none" 
	d="
M441.038788,337.021301 
	C441.038788,319.755890 441.038788,302.490479 441.038788,285.105255 
	C450.296295,285.105255 459.286591,284.536865 468.167236,285.279510 
	C475.691864,285.908783 481.853760,290.461578 485.071320,297.160522 
	C488.323547,303.931580 490.042358,311.439209 492.243225,319.408630 
	C486.068237,331.104889 477.034790,337.011749 464.412933,337.019165 
	C456.621552,337.023743 448.830170,337.020844 441.038788,337.021301 
z"/>
<path fill="#1784F6" opacity="1.000000" stroke="none" 
	d="
M16.281876,320.498047 
	C23.389479,331.621796 33.307407,337.731262 47.141514,337.076233 
	C53.749004,336.763367 60.383526,337.021423 67.470047,337.019684 
	C67.934296,346.792358 67.934296,356.566223 67.934296,366.447693 
	C59.054539,366.447693 50.414421,366.998230 41.876431,366.299957 
	C32.476631,365.531250 26.251184,359.463409 21.980328,351.410065 
	C16.925173,341.877747 15.479143,331.599487 16.281876,320.498047 
z"/>
<path fill="#1784F6" opacity="1.000000" stroke="none" 
	d="
M440.949341,337.480286 
	C448.830170,337.020844 456.621552,337.023743 464.412933,337.019165 
	C477.034790,337.011749 486.068237,331.104889 492.153107,319.806274 
	C494.224487,333.503448 491.489197,346.463654 482.612762,357.758057 
	C478.187439,363.388885 472.032745,366.381622 464.927368,366.681061 
	C457.164032,367.008270 449.376251,366.755463 440.859924,366.755463 
	C440.859924,357.032593 440.859924,347.485931 440.949341,337.480286 
z"/>
<path fill="#FB4654" opacity="1.000000" stroke="none" 
	d="
M249.382950,110.370255 
	C239.511917,108.285072 232.491669,99.692818 232.307877,89.471634 
	C232.133499,79.774918 238.973160,70.610649 248.375793,68.041550 
	C249.958282,67.609146 251.617355,67.456985 253.791962,67.525208 
	C255.075653,68.983948 255.833801,70.076981 256.537292,71.204140 
	C264.717590,84.310562 261.531677,101.732613 249.382950,110.370255 
z"/>
<path fill="#F52C3C" opacity="1.000000" stroke="none" 
	d="
M249.766785,110.600441 
	C261.531677,101.732613 264.717590,84.310562 256.537292,71.204140 
	C255.833801,70.076981 255.075653,68.983948 254.180054,67.590897 
	C266.607147,67.129616 276.757477,77.041672 276.647278,89.405525 
	C276.539032,101.549248 266.425262,111.334785 254.114182,111.173126 
	C252.791733,111.155769 251.471756,110.949348 249.766785,110.600441 
z"/>
<path fill="#E12C3B" opacity="1.000000" stroke="none" 
	d="
M344.834839,197.613617 
	C340.882996,194.735168 337.356720,190.862625 333.085815,188.172119 
	C323.439087,182.095078 313.424500,176.601990 303.302216,170.668823 
	C311.959106,170.631744 320.873474,170.791443 329.787323,170.974472 
	C330.438202,170.987823 331.475189,170.949219 331.677246,171.305984 
	C335.883789,178.732666 346.149780,182.490753 344.969727,193.186996 
	C344.825317,194.495850 344.932007,195.832382 344.834839,197.613617 
z"/>
<path fill="#515151" opacity="1.000000" stroke="none" 
	d="
M246.001434,134.133392 
	C246.001434,131.367661 246.001434,129.079605 246.001434,126.791565 
	C246.250443,126.792786 246.499466,126.793999 246.748474,126.795219 
	C246.748474,135.864456 246.748474,144.933685 246.748474,154.002914 
	C246.499466,154.009613 246.250443,154.016296 246.001434,154.022995 
	C246.001434,147.552353 246.001434,141.081726 246.001434,134.133392 
z"/>
<path fill="#3C3C3C" opacity="1.000000" stroke="none" 
	d="
M477.006042,251.315186 
	C477.003479,258.181061 477.003479,264.587708 477.003479,270.994354 
	C476.750275,270.992004 476.497101,270.989685 476.243896,270.987366 
	C476.243896,262.981720 476.243896,254.976059 476.243896,246.970413 
	C476.498810,246.962112 476.753723,246.953827 477.008636,246.945526 
	C477.008636,248.249008 477.008636,249.552490 477.006042,251.315186 
z"/>
<path fill="#050404" opacity="1.000000" stroke="none" 
	d="
M369.525055,242.423798 
	C388.955811,253.049957 398.449127,269.042084 398.264160,290.938965 
	C398.057648,315.388672 398.321289,339.842072 398.179535,364.292725 
	C398.058746,385.125244 388.568085,400.441437 370.056366,410.602905 
	C360.333374,414.953308 350.362671,415.921143 340.091675,415.899200 
	C281.285431,415.773651 222.478699,415.880402 163.672226,415.819000 
	C137.037613,415.791168 116.613861,399.554443 111.604347,374.526306 
	C110.956154,371.287872 110.775620,367.910553 110.766853,364.596558 
	C110.699867,339.274963 110.554924,313.951569 110.777733,288.631744 
	C110.999794,263.396759 127.049286,243.708054 151.283310,238.613342 
	C155.161301,237.798050 159.217697,237.544693 163.193619,237.528671 
	C187.182281,237.432037 211.171570,237.493500 235.160599,237.468704 
	C240.078079,237.463623 244.164215,238.534103 245.103424,245.008545 
	C244.345764,250.870987 240.901932,252.548965 236.244217,252.572754 
	C229.426239,252.607574 222.607956,252.583725 215.789810,252.584061 
	C197.996094,252.584961 180.202118,252.528793 162.408722,252.604492 
	C148.805313,252.662369 137.996933,257.923218 130.724091,270.207031 
	C128.865417,276.774475 126.079102,283.113770 125.942719,289.509613 
	C125.413971,314.306000 125.630066,339.120880 125.759026,363.927856 
	C125.870125,385.299225 140.721741,400.658722 162.043701,400.731445 
	C223.645889,400.941559 285.249298,400.849121 346.852081,400.755341 
	C355.509369,400.742157 363.610748,398.533386 370.466217,392.202057 
	C379.023529,384.866608 383.205780,375.807892 383.204987,364.840973 
	C383.203156,339.349304 383.220947,313.857605 383.173584,288.366028 
	C383.168976,285.882141 383.032532,283.341003 382.505829,280.924835 
	C378.752136,263.705383 364.848877,252.720383 346.387085,252.617416 
	C322.562225,252.484543 298.736084,252.601791 274.910522,252.573288 
	C267.911346,252.564926 266.152802,251.216904 264.584625,245.016586 
	C265.281311,239.847458 268.375397,237.488571 273.449951,237.499588 
	C298.759857,237.554535 324.076813,237.310577 349.374939,237.888199 
	C356.000763,238.039490 362.568085,240.751724 369.525055,242.423798 
z"/>
<path fill="#E1E1E1" opacity="1.000000" stroke="none" 
	d="
M131.013748,270.004883 
	C137.996933,257.923218 148.805313,252.662369 162.408722,252.604492 
	C180.202118,252.528793 197.996094,252.584961 215.789810,252.584061 
	C222.607956,252.583725 229.426239,252.607574 236.244217,252.572754 
	C240.901932,252.548965 244.345764,250.870987 245.195419,245.376617 
	C251.429382,245.018158 257.567047,245.027969 264.144653,245.027191 
	C266.152802,251.216904 267.911346,252.564926 274.910522,252.573288 
	C298.736084,252.601791 322.562225,252.484543 346.387085,252.617416 
	C364.848877,252.720383 378.752136,263.705383 382.505829,280.924835 
	C383.032532,283.341003 383.168976,285.882141 383.173584,288.366028 
	C383.220947,313.857605 383.203156,339.349304 383.204987,364.840973 
	C383.205780,375.807892 379.023529,384.866608 370.427124,391.713623 
	C370.044006,365.038300 370.232330,338.725739 369.911926,312.419403 
	C369.755920,299.612823 364.723480,288.883636 354.914459,280.114014 
	C345.124420,271.361328 333.450195,269.090210 321.230835,269.112946 
	C257.824799,269.230804 194.419388,269.674622 131.013748,270.004883 
z"/>
<path fill="#020201" opacity="1.000000" stroke="none" 
	d="
M472.046875,141.606796 
	C471.821747,142.485504 471.554626,142.971832 471.117981,143.945755 
	C470.909058,144.602066 470.869629,144.770798 470.830231,144.939514 
	C470.830231,144.939514 470.898895,144.940399 470.881287,144.910736 
	C468.007965,145.909225 465.159424,147.806778 462.295349,147.830490 
	C434.982269,148.056686 407.666565,147.965668 380.351593,147.964661 
	C379.518890,147.964630 378.681091,148.010529 377.854370,147.937027 
	C373.532410,147.552704 370.568176,144.575409 370.493256,140.583649 
	C370.414581,136.392715 373.483917,133.042206 378.091949,133.028030 
	C406.905426,132.939346 435.719727,132.916046 464.532867,133.053528 
	C469.502533,133.077240 471.943481,136.265915 472.046875,141.606796 
z"/>
<path fill="#030302" opacity="1.000000" stroke="none" 
	d="
M400.000000,112.926613 
	C392.844543,112.926361 386.188538,112.977928 379.533722,112.910072 
	C373.838104,112.851997 370.389252,109.843941 370.487885,105.196487 
	C370.583252,100.701965 373.847931,97.943405 379.360809,97.933624 
	C399.826385,97.897301 420.292053,97.903221 440.757660,97.928658 
	C446.725952,97.936073 449.979218,100.575340 450.025604,105.283722 
	C450.073364,110.129700 446.657318,112.900238 440.432922,112.915787 
	C427.122040,112.949036 413.810974,112.926376 400.000000,112.926613 
z"/>
<path fill="#FBD69E" opacity="1.000000" stroke="none" 
	d="
M471.004028,144.890213 
	C470.869629,144.770798 470.909058,144.602066 471.102173,144.223267 
	C471.330688,144.226929 471.423126,144.437363 471.464813,144.657379 
	C471.472687,144.698944 471.278687,144.778748 471.004028,144.890213 
z"/>
<path fill="#F7F5F5" opacity="1.000000" stroke="none" 
	d="
M130.724091,270.207031 
	C194.419388,269.674622 257.824799,269.230804 321.230835,269.112946 
	C333.450195,269.090210 345.124420,271.361328 354.914459,280.114014 
	C364.723480,288.883636 369.755920,299.612823 369.911926,312.419403 
	C370.232330,338.725739 370.044006,365.038300 370.104187,391.836731 
	C363.610748,398.533386 355.509369,400.742157 346.852081,400.755341 
	C285.249298,400.849121 223.645889,400.941559 162.043701,400.731445 
	C140.721741,400.658722 125.870125,385.299225 125.759026,363.927856 
	C125.630066,339.120880 125.413971,314.306000 125.942719,289.509613 
	C126.079102,283.113770 128.865417,276.774475 130.724091,270.207031 
M330.308350,279.999481 
	C316.476349,275.561218 302.892853,279.776794 294.829865,291.010010 
	C287.052643,301.845123 287.140411,316.064270 295.051453,326.907745 
	C302.918182,337.690491 317.033325,342.153961 329.733673,337.874939 
	C341.627625,333.867615 349.769775,322.932831 350.477844,310.015808 
	C351.173584,297.324005 344.035095,286.365143 330.308350,279.999481 
M161.765686,310.356018 
	C162.660233,323.202972 169.099854,332.329132 180.902344,337.138947 
	C192.332886,341.797180 203.251373,339.962830 212.522614,331.777863 
	C221.941376,323.462646 225.029510,312.783417 221.876846,300.597748 
	C218.208801,286.420166 203.677704,276.555908 189.351913,278.213440 
	C173.162552,280.086609 162.321121,292.332367 161.765686,310.356018 
M284.308624,363.755127 
	C285.384613,359.778107 283.794678,356.935944 280.388428,355.036591 
	C277.177673,353.246216 274.376129,354.321320 271.695068,356.475983 
	C259.672577,366.137909 251.003525,366.063293 238.277481,356.278992 
	C234.431122,353.321716 230.553635,353.463135 227.572113,356.669464 
	C224.749557,359.704834 224.701523,364.322815 228.160156,367.325073 
	C231.630966,370.337830 235.415131,373.238190 239.528870,375.217346 
	C255.044373,382.681946 275.820953,377.496185 284.308624,363.755127 
z"/>
<path fill="#040403" opacity="1.000000" stroke="none" 
	d="
M330.686310,280.105896 
	C344.035095,286.365143 351.173584,297.324005 350.477844,310.015808 
	C349.769775,322.932831 341.627625,333.867615 329.733673,337.874939 
	C317.033325,342.153961 302.918182,337.690491 295.051453,326.907745 
	C287.140411,316.064270 287.052643,301.845123 294.829865,291.010010 
	C302.892853,279.776794 316.476349,275.561218 330.686310,280.105896 
M321.447266,293.219452 
	C311.237915,293.062225 303.730530,300.029694 304.074738,309.342651 
	C304.418762,318.650177 312.350159,325.141205 322.745270,324.090515 
	C330.796478,321.973541 335.714355,315.994965 335.560394,308.511383 
	C335.406372,301.024719 330.191559,295.189453 321.447266,293.219452 
z"/>
<path fill="#040303" opacity="1.000000" stroke="none" 
	d="
M161.739624,309.893982 
	C162.321121,292.332367 173.162552,280.086609 189.351913,278.213440 
	C203.677704,276.555908 218.208801,286.420166 221.876846,300.597748 
	C225.029510,312.783417 221.941376,323.462646 212.522614,331.777863 
	C203.251373,339.962830 192.332886,341.797180 180.902344,337.138947 
	C169.099854,332.329132 162.660233,323.202972 161.739624,309.893982 
M194.434555,293.312927 
	C187.441925,292.529602 182.141068,295.313568 178.704636,301.299286 
	C175.545914,306.801331 175.852173,312.522827 179.487976,317.650574 
	C183.200699,322.886871 188.357162,325.413849 195.716339,324.028839 
	C203.880325,321.500641 208.344696,315.679504 207.995544,308.017914 
	C207.666992,300.808411 202.603226,295.179138 194.434555,293.312927 
z"/>
<path fill="#050505" opacity="1.000000" stroke="none" 
	d="
M284.196411,364.109619 
	C275.820953,377.496185 255.044373,382.681946 239.528870,375.217346 
	C235.415131,373.238190 231.630966,370.337830 228.160156,367.325073 
	C224.701523,364.322815 224.749557,359.704834 227.572113,356.669464 
	C230.553635,353.463135 234.431122,353.321716 238.277481,356.278992 
	C251.003525,366.063293 259.672577,366.137909 271.695068,356.475983 
	C274.376129,354.321320 277.177673,353.246216 280.388428,355.036591 
	C283.794678,356.935944 285.384613,359.778107 284.196411,364.109619 
z"/>
<path fill="#F88427" opacity="1.000000" stroke="none" 
	d="
M321.989197,324.003815 
	C312.350159,325.141205 304.418762,318.650177 304.074738,309.342651 
	C303.730530,300.029694 311.237915,293.062225 321.857788,293.727905 
	C328.949677,304.222382 328.976929,314.145966 321.989197,324.003815 
z"/>
<path fill="#EC651E" opacity="1.000000" stroke="none" 
	d="
M322.367249,324.047180 
	C328.976929,314.145966 328.949677,304.222382 322.204041,293.865173 
	C330.191559,295.189453 335.406372,301.024719 335.560394,308.511383 
	C335.714355,315.994965 330.796478,321.973541 322.367249,324.047180 
z"/>
<path fill="#F98527" opacity="1.000000" stroke="none" 
	d="
M194.966370,323.936890 
	C188.357162,325.413849 183.200699,322.886871 179.487976,317.650574 
	C175.852173,312.522827 175.545914,306.801331 178.704636,301.299286 
	C182.141068,295.313568 187.441925,292.529602 194.849030,293.855652 
	C198.836227,301.035919 201.694717,307.842438 198.890045,315.519165 
	C197.831604,318.416199 196.288513,321.136169 194.966370,323.936890 
z"/>
<path fill="#EA641E" opacity="1.000000" stroke="none" 
	d="
M195.341354,323.982849 
	C196.288513,321.136169 197.831604,318.416199 198.890045,315.519165 
	C201.694717,307.842438 198.836227,301.035919 195.178238,294.036377 
	C202.603226,295.179138 207.666992,300.808411 207.995544,308.017914 
	C208.344696,315.679504 203.880325,321.500641 195.341354,323.982849 
z"/>
</svg>